<svg width="82" height="28" viewBox="0 0 82 28" fill="none" xmlns="http://www.w3.org/2000/svg">
<path fill-rule="evenodd" clip-rule="evenodd" d="M22.5576 27.3333H18.2518C17.7679 27.3333 17.2962 27.1972 16.9017 26.9196C15.3149 25.8033 10.9428 22.1441 7.57227 17.2547C7.52538 17.1867 7.41677 17.2175 7.41677 17.2999V26.5014C7.41677 26.9617 7.04017 27.3333 6.57561 27.3333H1.52866C1.0641 27.3333 0.6875 26.9602 0.6875 26.5V1.49996C0.6875 1.03972 1.0641 0.666626 1.52866 0.666626H5.99492C6.34445 0.666626 6.65591 0.874899 6.78829 1.19538C7.66685 3.32233 11.2185 11.6582 16.529 16.649C16.5824 16.6992 16.6695 16.665 16.6695 16.5922V1.49469C16.6695 1.03445 17.0461 0.666626 17.5107 0.666626H22.5576C23.0222 0.666626 23.3988 1.03972 23.3988 1.49996V26.5C23.3988 26.9602 23.0222 27.3333 22.5576 27.3333ZM60.8723 17.3333C60.8723 22.8561 65.448 27.3333 71.0924 27.3333C73.1275 27.3333 75.0237 26.7513 76.6165 25.7481C76.6525 25.7254 76.7003 25.7364 76.7233 25.7721C77.3261 26.71 78.3932 27.3333 79.6092 27.3333H80.4608C80.9312 27.3333 81.3125 26.9602 81.3125 26.5V17.3333C81.3125 11.8104 76.7368 7.33329 71.0924 7.33329C65.448 7.33329 60.8723 11.8104 60.8723 17.3333ZM75.3508 17.3333C75.3508 19.6345 73.4443 21.5 71.0924 21.5C68.7406 21.5 66.8341 19.6345 66.8341 17.3333C66.8341 15.0321 68.7406 13.1666 71.0924 13.1666C73.4443 13.1666 75.3508 15.0321 75.3508 17.3333ZM35.89 27.3333C30.5219 27.3333 26.8055 23.7423 26.8055 18.2995V9.26566C26.8055 8.81209 27.1753 8.4444 27.6314 8.4444H31.7607C32.2168 8.4444 32.5866 8.81209 32.5866 9.26566V18.2995C32.5866 20.5673 33.8254 21.5845 35.89 21.5845C37.9547 21.5845 39.1935 20.5673 39.1935 18.2995V9.26566C39.1935 8.81209 39.5632 8.4444 40.0193 8.4444H44.1487C44.6048 8.4444 44.9745 8.81209 44.9745 9.26566V26.512C44.9745 26.9656 44.6048 27.3333 44.1487 27.3333H43.3228C42.2912 27.3333 41.3701 26.8631 40.7643 26.1265C39.3917 26.9073 37.7388 27.3333 35.89 27.3333ZM49.2495 27.3333H54.4597C54.9393 27.3333 55.3281 26.9602 55.3281 26.5V18.25C55.3281 18.2039 55.367 18.1666 55.4149 18.1666H57.5739C58.0776 18.1666 58.4813 17.7562 58.4889 17.2729C58.4976 16.7223 58.5407 15.9674 58.6786 15.154C58.8254 14.2874 59.1067 13.3638 59.349 12.662C59.5428 12.1011 59.1143 11.5 58.4985 11.5H55.4132C55.3662 11.5 55.3281 11.4634 55.3281 11.4183C55.3281 9.1622 57.2339 7.33329 59.5848 7.33329H62.2751C62.7547 7.33329 63.1435 6.9602 63.1435 6.49996V1.49996C63.1435 1.03972 62.7547 0.666626 62.2751 0.666626H59.67C53.4353 0.666626 48.3811 5.51688 48.3811 11.5V26.5C48.3811 26.9602 48.7699 27.3333 49.2495 27.3333Z" fill="white"/>
</svg>
